<svg viewBox="0 0 192 192" width="24px" height="24px"><g fill="none" fill-rule="nonzero" stroke="none" stroke-width="1" stroke-linecap="butt" stroke-linejoin="miter" stroke-miterlimit="10" stroke-dasharray="" stroke-dashoffset="0" font-family="none" font-weight="none" font-size="none" text-anchor="none" style="mix-blend-mode: normal"><path d="M0,192v-192h192v192z" fill="none"/><g fill="#e74c3c"><path d="M96,16c-44.184,0 -80,35.816 -80,80c0,44.184 35.816,80 80,80c44.184,0 80,-35.816 80,-80c0,-44.184 -35.816,-80 -80,-80zM135.32813,52.26562c2.91615,-0.33884 5.42587,2.71088 4.04687,5.67188l-23.39062,50.28125c-1.592,3.424 -4.34162,6.17362 -7.76562,7.76562l-50.28125,23.39062c-3.384,1.576 -6.8885,-1.9285 -5.3125,-5.3125l23.39062,-50.28125c1.592,-3.416 4.34162,-6.17362 7.76562,-7.76562l50.28125,-23.39062c0.42301,-0.197 0.84903,-0.31097 1.26563,-0.35938zM96,87.20313c-4.88,0 -8.79687,3.91687 -8.79687,8.79687c0,4.88 3.91687,8.79687 8.79687,8.79687c4.88,0 8.79687,-3.91687 8.79687,-8.79687c0,-4.88 -3.91687,-8.79687 -8.79687,-8.79687z"/></g></g></svg>
